<?xml version="1.0" encoding="utf-8"?>
<!-- Generator: Adobe Illustrator 24.0.1, SVG Export Plug-In . SVG Version: 6.00 Build 0)  -->
<svg version="1.1" id="Layer_1" xmlns="http://www.w3.org/2000/svg" xmlns:xlink="http://www.w3.org/1999/xlink" x="0px" y="0px"
	 viewBox="0 0 580.9 81.1" style="enable-background:new 0 0 580.9 81.1;" xml:space="preserve">
<style type="text/css">
	.st0{fill:#191919;}
</style>
<title>Logotype</title>
<g>
	<g>
		<path d="M572.9,15.9c-4.3,0-8-3.4-8-7.9c0-4.5,3.7-7.9,8-7.9c4.3,0,7.9,3.4,7.9,7.9C580.8,12.5,577.2,15.9,572.9,15.9z
			 M572.9,14.6c3.5,0,6.4-2.8,6.4-6.6c0-3.7-2.9-6.5-6.4-6.5c-3.6,0-6.4,2.8-6.4,6.5C566.5,11.8,569.3,14.6,572.9,14.6z M575.4,9.8
			c-0.2-0.8-0.5-1.3-1.1-1.5c0.8-0.2,1.5-1,1.5-2c0-1.2-1-2.1-2.7-2.1h-2.8v7.4h1.5V8.8h0.9c0.8,0,1.1,0.5,1.3,1.1
			c0.2,0.6,0.2,1.3,0.6,1.7h1.5v-0.1C575.6,11,575.6,10.5,575.4,9.8z M573,7.6h-1.2V5.4h1.2c0.9,0,1.4,0.4,1.4,1
			C574.3,7.2,573.8,7.6,573,7.6z"/>
	</g>
	<g>
		<g>
			<path class="st0" d="M42.6,33.8l-14.7-2.5c-6.3-1.1-9.8-4.1-9.8-8.5c0-5.8,6.5-10.2,15-10.2c8.4,0,15.3,4.5,17.3,11.1
				c0,0,0,0,0,0.1c0.1,0.4,0.2,0.8,0.3,1.2l14.4-4.1L65,20.2C61.2,7.5,49.4,0,33.4,0C15.3,0,3.2,9.4,3.2,23.4
				c0,11.2,7.7,18.7,21.7,21.2L40,47.3c8.3,1.5,12.1,4.6,12.1,9.8c0,7.7-8.8,11.2-17,11.2c-10.8,0-18.4-5.7-21.3-16l-0.2-0.8
				l-13.9,3.9l0.1,0.6c4,15.6,17.3,25,35.6,25c18.8,0,31.4-9.9,31.4-24.7C66.9,44.1,58.7,36.6,42.6,33.8z"/>
			<path class="st0" d="M133,50c-1.7,11.3-10.1,18.3-21.9,18.3c-15.3,0-26-11.4-26-27.7c0-16.2,10.7-27.9,25.5-27.9
				c10.4,0,18.2,6,20.5,15.6l0.2,0.8l14.3-4c0,0-0.1-0.2-0.1-0.3C141.7,9.4,128.5,0,110.8,0C87.4,0,70.4,17,70.4,40.5
				c0,23.8,16.8,40.4,40.8,40.4c19.2,0,33-10.6,36.3-27.6c0,0,0-0.1,0-0.1l-14.3-4L133,50z"/>
			<path class="st0" d="M191.6,0c-23.7,0-40.3,16.7-40.3,40.6c0,23.8,16.6,40.4,40.3,40.4s40.3-16.6,40.3-40.4
				C231.9,16.6,215.3,0,191.6,0z M191.6,68.3c-14.8,0-25.5-11.7-25.5-27.7c0-16.2,10.7-27.9,25.5-27.9c14.8,0,25.5,11.8,25.5,27.9
				C217.1,56.6,206.3,68.3,191.6,68.3z"/>
			<path class="st0" d="M344.8,1.1h-34.9v78.8h14.8V50.9h20c17.6,0,28.9-9.7,28.9-24.7C373.7,10.9,362.3,1.1,344.8,1.1z M344.4,38.3
				h-19.7V13.7h19.7c9,0,14.4,4.7,14.4,12.5C358.9,33.9,353.6,38.3,344.4,38.3z"/>
			<rect x="379.4" y="1.2" class="st0" width="14.8" height="78.8"/>
			<path class="st0" d="M440.5,0.1c-23.7,0-40.3,16.7-40.3,40.6c0,23.8,16.6,40.4,40.3,40.4c23.7,0,40.3-16.6,40.3-40.4
				C480.8,16.8,464.2,0.1,440.5,0.1z M440.5,68.4c-14.8,0-25.5-11.7-25.5-27.7c0-16.2,10.7-27.9,25.5-27.9
				c14.8,0,25.5,11.8,25.5,27.9C466,56.8,455.3,68.4,440.5,68.4z"/>
			<polygon class="st0" points="541.3,1.1 541.3,56.2 504.7,1.4 504.4,1.1 486.8,1.1 486.8,79.8 501.6,79.8 501.6,21.2 540.5,79.4 
				540.7,79.8 556.1,79.8 556.1,1.1 			"/>
			<g>
				<path class="st0" d="M299,59.2c-1.8-7.1-5.4-11.8-10.6-14.9c8.9-3.5,13.8-11.1,13.8-20.6c0-14-10.8-22.6-28.1-22.6h-35.9v19.2
					L253,31V13.7h20.7c8.5,0,13.6,4.1,13.6,10.9c0,6.9-5.2,11.7-13.6,11.7h-35.5v43.6H253V48.9h14c9.7,0,15.4,4.1,17.5,13.4
					l3.9,17.5h15.7L299,59.2z"/>
			</g>
		</g>
	</g>
</g>
</svg>
